<svg width="120" height="60" viewBox="0 0 120 60" fill="none" xmlns="http://www.w3.org/2000/svg">
<path fill-rule="evenodd" clip-rule="evenodd" d="M120 6C120 9.31371 117.558 12 114.545 12L5.45454 12C2.44208 12 0 9.31371 0 6C0 2.68629 2.44208 0 5.45454 0L114.545 0C117.558 0 120 2.68629 120 6Z" fill="white"/>
<path fill-rule="evenodd" clip-rule="evenodd" d="M120 54C120 57.3137 117.558 60 114.545 60L5.45454 60C2.44208 60 0 57.3137 0 54C0 50.6863 2.44208 48 5.45454 48L114.545 48C117.558 48 120 50.6863 120 54Z" fill="white"/>
<path fill-rule="evenodd" clip-rule="evenodd" d="M120 30C120 33.3137 117.558 36 114.545 36L5.45454 36C2.44208 36 0 33.3137 0 30C0 26.6863 2.44208 24 5.45454 24L114.545 24C117.558 24 120 26.6863 120 30Z" fill="white"/>
<path d="M52 25L55.871 12H63.129L67 25H52Z" fill="#930000"/>
<path d="M45.5 48L49 36H71L74.5 48H45.5Z" fill="#930000"/>
<path d="M59.9847 1.62719L67.0228 24.1491L67.1324 24.5H67.5H88.3336L71.2247 35.7826L70.9154 35.9866L71.0205 36.3418L77.7 58.9197L60.2551 48.57L60 48.4186L59.7449 48.57L42.3 58.9197L48.9795 36.3418L49.0846 35.9866L48.7753 35.7826L31.6664 24.5H52H52.3604L52.4743 24.1581L59.9847 1.62719Z" stroke="#930000"/>
</svg>
