<svg width="31" height="31" viewBox="0 0 31 31" fill="none" xmlns="http://www.w3.org/2000/svg">
<circle cx="15" cy="15" r="11" fill="#A60000"/>
<path fill-rule="evenodd" clip-rule="evenodd" d="M0.292893 29.9914C-0.0976311 29.6009 -0.0976311 28.9677 0.292893 28.5772L6.67727 22.1928C7.11417 22.6979 7.59627 23.1628 8.11729 23.5812L1.70711 29.9914C1.31658 30.3819 0.683418 30.3819 0.292893 29.9914ZM15 16.6985L8.11729 23.5812C10.0017 25.0945 12.3951 26 15 26C17.6049 26 19.9983 25.0945 21.8827 23.5812L28.5772 30.2756C28.9677 30.6662 29.6009 30.6662 29.9914 30.2756C30.3819 29.8851 30.3819 29.252 29.9914 28.8614L23.3227 22.1928C24.9909 20.2643 26 17.75 26 15C26 12.3951 25.0945 10.0017 23.5812 8.11729L29.9914 1.70711C30.3819 1.31658 30.3819 0.683417 29.9914 0.292893C29.6009 -0.0976312 28.9677 -0.0976308 28.5772 0.292893L22.1928 6.67727C20.2643 5.00913 17.75 4 15 4C12.25 4 9.73571 5.00913 7.80722 6.67727L1.70711 0.577163C1.31658 0.186639 0.683418 0.186639 0.292893 0.577163C-0.0976311 0.967688 -0.0976311 1.60085 0.292893 1.99138L6.4188 8.11729C4.90546 10.0017 4 12.3951 4 15C4 17.75 5.00913 20.2643 6.67727 22.1928L13.5858 15.2843L15 16.6985ZM13.5858 15.2843L15 13.8701L16.4142 15.2843L15 16.6985L21.8827 23.5812C22.4037 23.1628 22.8858 22.6979 23.3227 22.1928L16.4142 15.2843L23.5812 8.11729C23.1628 7.59627 22.6979 7.11417 22.1928 6.67727L15 13.8701L7.80722 6.67727C7.30213 7.11417 6.83723 7.59627 6.4188 8.11729L13.5858 15.2843Z" fill="white"/>
</svg>
